solid Default
  facet normal 0.000000e+00 0.000000e+00 -1.000000e+00
    outer loop
      vertex 4.750000e+01 4.750000e+01 0.000000e+00
      vertex -4.750000e+01 -4.750000e+01 0.000000e+00
      vertex -4.750000e+01 4.750000e+01 0.000000e+00
    endloop
  endfacet
  facet normal 0.000000e+00 0.000000e+00 -1.000000e+00
    outer loop
      vertex -4.750000e+01 -4.750000e+01 0.000000e+00
      vertex 4.750000e+01 4.750000e+01 0.000000e+00
      vertex 4.750000e+01 -4.750000e+01 0.000000e+00
    endloop
  endfacet
  facet normal -1.000000e+00 0.000000e+00 0.000000e+00
    outer loop
      vertex -4.750000e+01 4.750000e+01 5.000000e+00
      vertex -4.750000e+01 -4.750000e+01 0.000000e+00
      vertex -4.750000e+01 -4.750000e+01 5.000000e+00
    endloop
  endfacet
  facet normal -1.000000e+00 0.000000e+00 0.000000e+00
    outer loop
      vertex -4.750000e+01 -4.750000e+01 0.000000e+00
      vertex -4.750000e+01 4.750000e+01 5.000000e+00
      vertex -4.750000e+01 4.750000e+01 0.000000e+00
    endloop
  endfacet
  facet normal 0.000000e+00 1.000000e+00 0.000000e+00
    outer loop
      vertex -4.750000e+01 4.750000e+01 5.000000e+00
      vertex 4.750000e+01 4.750000e+01 0.000000e+00
      vertex -4.750000e+01 4.750000e+01 0.000000e+00
    endloop
  endfacet
  facet normal 0.000000e+00 1.000000e+00 0.000000e+00
    outer loop
      vertex 4.750000e+01 4.750000e+01 0.000000e+00
      vertex -4.750000e+01 4.750000e+01 5.000000e+00
      vertex 4.750000e+01 4.750000e+01 5.000000e+00
    endloop
  endfacet
  facet normal 1.000000e+00 0.000000e+00 0.000000e+00
    outer loop
      vertex 4.750000e+01 4.750000e+01 0.000000e+00
      vertex 4.750000e+01 -4.750000e+01 5.000000e+00
      vertex 4.750000e+01 -4.750000e+01 0.000000e+00
    endloop
  endfacet
  facet normal 1.000000e+00 0.000000e+00 0.000000e+00
    outer loop
      vertex 4.750000e+01 -4.750000e+01 5.000000e+00
      vertex 4.750000e+01 4.750000e+01 0.000000e+00
      vertex 4.750000e+01 4.750000e+01 5.000000e+00
    endloop
  endfacet
  facet normal -0.000000e+00 -1.000000e+00 -0.000000e+00
    outer loop
      vertex 4.750000e+01 -4.750000e+01 5.000000e+00
      vertex -4.750000e+01 -4.750000e+01 0.000000e+00
      vertex 4.750000e+01 -4.750000e+01 0.000000e+00
    endloop
  endfacet
  facet normal -0.000000e+00 -1.000000e+00 -0.000000e+00
    outer loop
      vertex -4.750000e+01 -4.750000e+01 0.000000e+00
      vertex 4.750000e+01 -4.750000e+01 5.000000e+00
      vertex -4.750000e+01 -4.750000e+01 5.000000e+00
    endloop
  endfacet
  facet normal 0.000000e+00 0.000000e+00 1.000000e+00
    outer loop
      vertex -4.750000e+01 -4.750000e+01 5.000000e+00
      vertex -3.750000e+01 -3.250000e+01 5.000000e+00
      vertex -4.750000e+01 4.750000e+01 5.000000e+00
    endloop
  endfacet
  facet normal 0.000000e+00 0.000000e+00 1.000000e+00
    outer loop
      vertex -3.750000e+01 -3.250000e+01 5.000000e+00
      vertex -4.750000e+01 -4.750000e+01 5.000000e+00
      vertex 4.750000e+01 -4.750000e+01 5.000000e+00
    endloop
  endfacet
  facet normal 0.000000e+00 0.000000e+00 1.000000e+00
    outer loop
      vertex -3.750000e+01 -3.250000e+01 5.000000e+00
      vertex 4.750000e+01 -4.750000e+01 5.000000e+00
      vertex -1.373215e+01 -3.250000e+01 5.000000e+00
    endloop
  endfacet
  facet normal 0.000000e+00 0.000000e+00 1.000000e+00
    outer loop
      vertex -1.373215e+01 -3.250000e+01 5.000000e+00
      vertex 4.750000e+01 -4.750000e+01 5.000000e+00
      vertex 4.126785e+01 0.000000e+00 5.000000e+00
    endloop
  endfacet
  facet normal 0.000000e+00 0.000000e+00 1.000000e+00
    outer loop
      vertex -4.750000e+01 4.750000e+01 5.000000e+00
      vertex -3.750000e+01 3.250000e+01 5.000000e+00
      vertex 4.750000e+01 4.750000e+01 5.000000e+00
    endloop
  endfacet
  facet normal 0.000000e+00 0.000000e+00 1.000000e+00
    outer loop
      vertex -3.750000e+01 3.250000e+01 5.000000e+00
      vertex -4.750000e+01 4.750000e+01 5.000000e+00
      vertex -3.750000e+01 -3.250000e+01 5.000000e+00
    endloop
  endfacet
  facet normal 0.000000e+00 0.000000e+00 1.000000e+00
    outer loop
      vertex 4.750000e+01 4.750000e+01 5.000000e+00
      vertex -3.750000e+01 3.250000e+01 5.000000e+00
      vertex -1.373215e+01 3.250000e+01 5.000000e+00
    endloop
  endfacet
  facet normal 0.000000e+00 0.000000e+00 1.000000e+00
    outer loop
      vertex -1.373215e+01 3.250000e+01 5.000000e+00
      vertex -3.750000e+01 3.250000e+01 5.000000e+00
      vertex -1.373215e+01 1.845536e+01 5.000000e+00
    endloop
  endfacet
  facet normal 0.000000e+00 0.000000e+00 1.000000e+00
    outer loop
      vertex 4.750000e+01 4.750000e+01 5.000000e+00
      vertex -1.373215e+01 3.250000e+01 5.000000e+00
      vertex 4.126785e+01 0.000000e+00 5.000000e+00
    endloop
  endfacet
  facet normal 0.000000e+00 0.000000e+00 1.000000e+00
    outer loop
      vertex 4.750000e+01 4.750000e+01 5.000000e+00
      vertex 4.126785e+01 0.000000e+00 5.000000e+00
      vertex 4.750000e+01 -4.750000e+01 5.000000e+00
    endloop
  endfacet
  facet normal 0.000000e+00 0.000000e+00 1.000000e+00
    outer loop
      vertex -1.373215e+01 -1.845536e+01 5.000000e+00
      vertex -3.750000e+01 -3.250000e+01 5.000000e+00
      vertex -1.373215e+01 -3.250000e+01 5.000000e+00
    endloop
  endfacet
  facet normal 0.000000e+00 0.000000e+00 1.000000e+00
    outer loop
      vertex 4.126785e+01 0.000000e+00 1.000000e+01
      vertex -1.373215e+01 -1.845536e+01 1.000000e+01
      vertex -1.373215e+01 -3.250000e+01 1.000000e+01
    endloop
  endfacet
  facet normal 0.000000e+00 0.000000e+00 1.000000e+00
    outer loop
      vertex -1.373215e+01 -1.845536e+01 1.000000e+01
      vertex 4.126785e+01 0.000000e+00 1.000000e+01
      vertex -1.373215e+01 1.845536e+01 1.000000e+01
    endloop
  endfacet
  facet normal 0.000000e+00 0.000000e+00 1.000000e+00
    outer loop
      vertex -1.373215e+01 1.845536e+01 1.000000e+01
      vertex 4.126785e+01 0.000000e+00 1.000000e+01
      vertex -1.373215e+01 3.250000e+01 1.000000e+01
    endloop
  endfacet
  facet normal 0.000000e+00 0.000000e+00 1.000000e+00
    outer loop
      vertex -1.373215e+01 -1.845536e+01 1.000000e+01
      vertex -3.750000e+01 3.250000e+01 1.000000e+01
      vertex -3.750000e+01 -3.250000e+01 1.000000e+01
    endloop
  endfacet
  facet normal 0.000000e+00 0.000000e+00 1.000000e+00
    outer loop
      vertex -3.750000e+01 3.250000e+01 1.000000e+01
      vertex -1.373215e+01 -1.845536e+01 1.000000e+01
      vertex -1.373215e+01 1.845536e+01 1.000000e+01
    endloop
  endfacet
  facet normal -1.000000e+00 -0.000000e+00 -0.000000e+00
    outer loop
      vertex -1.373215e+01 3.250000e+01 1.000000e+01
      vertex -1.373215e+01 1.845536e+01 5.000000e+00
      vertex -1.373215e+01 1.845536e+01 1.000000e+01
    endloop
  endfacet
  facet normal -1.000000e+00 -0.000000e+00 -0.000000e+00
    outer loop
      vertex -1.373215e+01 1.845536e+01 5.000000e+00
      vertex -1.373215e+01 3.250000e+01 1.000000e+01
      vertex -1.373215e+01 3.250000e+01 5.000000e+00
    endloop
  endfacet
  facet normal 5.087293e-01 8.609265e-01 0.000000e+00
    outer loop
      vertex -3.750000e+01 3.250000e+01 1.000000e+01
      vertex -1.373215e+01 1.845536e+01 5.000000e+00
      vertex -3.750000e+01 3.250000e+01 5.000000e+00
    endloop
  endfacet
  facet normal 5.087293e-01 8.609265e-01 0.000000e+00
    outer loop
      vertex -1.373215e+01 1.845536e+01 5.000000e+00
      vertex -3.750000e+01 3.250000e+01 1.000000e+01
      vertex -1.373215e+01 1.845536e+01 1.000000e+01
    endloop
  endfacet
  facet normal -1.000000e+00 -0.000000e+00 -0.000000e+00
    outer loop
      vertex -3.750000e+01 3.250000e+01 1.000000e+01
      vertex -3.750000e+01 -3.250000e+01 5.000000e+00
      vertex -3.750000e+01 -3.250000e+01 1.000000e+01
    endloop
  endfacet
  facet normal -1.000000e+00 -0.000000e+00 -0.000000e+00
    outer loop
      vertex -3.750000e+01 -3.250000e+01 5.000000e+00
      vertex -3.750000e+01 3.250000e+01 1.000000e+01
      vertex -3.750000e+01 3.250000e+01 5.000000e+00
    endloop
  endfacet
  facet normal 5.087293e-01 -8.609265e-01 0.000000e+00
    outer loop
      vertex -1.373215e+01 -1.845536e+01 1.000000e+01
      vertex -3.750000e+01 -3.250000e+01 5.000000e+00
      vertex -1.373215e+01 -1.845536e+01 5.000000e+00
    endloop
  endfacet
  facet normal 5.087293e-01 -8.609265e-01 0.000000e+00
    outer loop
      vertex -3.750000e+01 -3.250000e+01 5.000000e+00
      vertex -1.373215e+01 -1.845536e+01 1.000000e+01
      vertex -3.750000e+01 -3.250000e+01 1.000000e+01
    endloop
  endfacet
  facet normal -1.000000e+00 -0.000000e+00 -0.000000e+00
    outer loop
      vertex -1.373215e+01 -1.845536e+01 1.000000e+01
      vertex -1.373215e+01 -3.250000e+01 5.000000e+00
      vertex -1.373215e+01 -3.250000e+01 1.000000e+01
    endloop
  endfacet
  facet normal -1.000000e+00 -0.000000e+00 -0.000000e+00
    outer loop
      vertex -1.373215e+01 -3.250000e+01 5.000000e+00
      vertex -1.373215e+01 -1.845536e+01 1.000000e+01
      vertex -1.373215e+01 -1.845536e+01 5.000000e+00
    endloop
  endfacet
  facet normal 5.087293e-01 -8.609265e-01 0.000000e+00
    outer loop
      vertex 4.126785e+01 0.000000e+00 1.000000e+01
      vertex -1.373215e+01 -3.250000e+01 5.000000e+00
      vertex 4.126785e+01 0.000000e+00 5.000000e+00
    endloop
  endfacet
  facet normal 5.087293e-01 -8.609265e-01 0.000000e+00
    outer loop
      vertex -1.373215e+01 -3.250000e+01 5.000000e+00
      vertex 4.126785e+01 0.000000e+00 1.000000e+01
      vertex -1.373215e+01 -3.250000e+01 1.000000e+01
    endloop
  endfacet
  facet normal 5.087293e-01 8.609265e-01 0.000000e+00
    outer loop
      vertex -1.373215e+01 3.250000e+01 1.000000e+01
      vertex 4.126785e+01 0.000000e+00 5.000000e+00
      vertex -1.373215e+01 3.250000e+01 5.000000e+00
    endloop
  endfacet
  facet normal 5.087293e-01 8.609265e-01 0.000000e+00
    outer loop
      vertex 4.126785e+01 0.000000e+00 5.000000e+00
      vertex -1.373215e+01 3.250000e+01 1.000000e+01
      vertex 4.126785e+01 0.000000e+00 1.000000e+01
    endloop
  endfacet
endsolid Default
