solid Default
  facet normal 0.000000e+00 0.000000e+00 -1.000000e+00
    outer loop
      vertex 3.000000e+01 1.000000e+01 0.000000e+00
      vertex -3.000000e+01 -1.000000e+01 0.000000e+00
      vertex -3.000000e+01 1.000000e+01 0.000000e+00
    endloop
  endfacet
  facet normal 0.000000e+00 0.000000e+00 -1.000000e+00
    outer loop
      vertex -3.000000e+01 -1.000000e+01 0.000000e+00
      vertex 3.000000e+01 1.000000e+01 0.000000e+00
      vertex 3.000000e+01 -1.000000e+01 0.000000e+00
    endloop
  endfacet
  facet normal -1.000000e+00 0.000000e+00 0.000000e+00
    outer loop
      vertex -3.000000e+01 1.000000e+01 5.000000e+00
      vertex -3.000000e+01 -1.000000e+01 0.000000e+00
      vertex -3.000000e+01 -1.000000e+01 5.000000e+00
    endloop
  endfacet
  facet normal -1.000000e+00 0.000000e+00 0.000000e+00
    outer loop
      vertex -3.000000e+01 -1.000000e+01 0.000000e+00
      vertex -3.000000e+01 1.000000e+01 5.000000e+00
      vertex -3.000000e+01 1.000000e+01 0.000000e+00
    endloop
  endfacet
  facet normal 0.000000e+00 1.000000e+00 0.000000e+00
    outer loop
      vertex -3.000000e+01 1.000000e+01 5.000000e+00
      vertex 3.000000e+01 1.000000e+01 0.000000e+00
      vertex -3.000000e+01 1.000000e+01 0.000000e+00
    endloop
  endfacet
  facet normal 0.000000e+00 1.000000e+00 0.000000e+00
    outer loop
      vertex 3.000000e+01 1.000000e+01 0.000000e+00
      vertex -3.000000e+01 1.000000e+01 5.000000e+00
      vertex 3.000000e+01 1.000000e+01 5.000000e+00
    endloop
  endfacet
  facet normal 1.000000e+00 0.000000e+00 0.000000e+00
    outer loop
      vertex 3.000000e+01 1.000000e+01 0.000000e+00
      vertex 3.000000e+01 -1.000000e+01 5.000000e+00
      vertex 3.000000e+01 -1.000000e+01 0.000000e+00
    endloop
  endfacet
  facet normal 1.000000e+00 0.000000e+00 0.000000e+00
    outer loop
      vertex 3.000000e+01 -1.000000e+01 5.000000e+00
      vertex 3.000000e+01 1.000000e+01 0.000000e+00
      vertex 3.000000e+01 1.000000e+01 5.000000e+00
    endloop
  endfacet
  facet normal -0.000000e+00 -1.000000e+00 -0.000000e+00
    outer loop
      vertex 3.000000e+01 -1.000000e+01 5.000000e+00
      vertex -3.000000e+01 -1.000000e+01 0.000000e+00
      vertex 3.000000e+01 -1.000000e+01 0.000000e+00
    endloop
  endfacet
  facet normal -0.000000e+00 -1.000000e+00 -0.000000e+00
    outer loop
      vertex -3.000000e+01 -1.000000e+01 0.000000e+00
      vertex 3.000000e+01 -1.000000e+01 5.000000e+00
      vertex -3.000000e+01 -1.000000e+01 5.000000e+00
    endloop
  endfacet
  facet normal 0.000000e+00 0.000000e+00 1.000000e+00
    outer loop
      vertex -3.000000e+01 -1.000000e+01 5.000000e+00
      vertex -5.000000e+00 -8.000000e+00 5.000000e+00
      vertex -3.000000e+01 1.000000e+01 5.000000e+00
    endloop
  endfacet
  facet normal 0.000000e+00 0.000000e+00 1.000000e+00
    outer loop
      vertex -5.000000e+00 -8.000000e+00 5.000000e+00
      vertex -3.000000e+01 -1.000000e+01 5.000000e+00
      vertex 3.000000e+01 -1.000000e+01 5.000000e+00
    endloop
  endfacet
  facet normal 0.000000e+00 0.000000e+00 1.000000e+00
    outer loop
      vertex -5.000000e+00 -8.000000e+00 5.000000e+00
      vertex 3.000000e+01 -1.000000e+01 5.000000e+00
      vertex 5.000000e+00 -8.000000e+00 5.000000e+00
    endloop
  endfacet
  facet normal 0.000000e+00 0.000000e+00 1.000000e+00
    outer loop
      vertex 5.000000e+00 -8.000000e+00 5.000000e+00
      vertex 3.000000e+01 -1.000000e+01 5.000000e+00
      vertex 5.000000e+00 8.000000e+00 5.000000e+00
    endloop
  endfacet
  facet normal 0.000000e+00 0.000000e+00 1.000000e+00
    outer loop
      vertex -3.000000e+01 1.000000e+01 5.000000e+00
      vertex -5.000000e+00 8.000000e+00 5.000000e+00
      vertex 3.000000e+01 1.000000e+01 5.000000e+00
    endloop
  endfacet
  facet normal 0.000000e+00 0.000000e+00 1.000000e+00
    outer loop
      vertex -5.000000e+00 8.000000e+00 5.000000e+00
      vertex -3.000000e+01 1.000000e+01 5.000000e+00
      vertex -5.000000e+00 -8.000000e+00 5.000000e+00
    endloop
  endfacet
  facet normal 0.000000e+00 0.000000e+00 1.000000e+00
    outer loop
      vertex 3.000000e+01 1.000000e+01 5.000000e+00
      vertex -5.000000e+00 8.000000e+00 5.000000e+00
      vertex 5.000000e+00 8.000000e+00 5.000000e+00
    endloop
  endfacet
  facet normal 0.000000e+00 0.000000e+00 1.000000e+00
    outer loop
      vertex 3.000000e+01 1.000000e+01 5.000000e+00
      vertex 5.000000e+00 8.000000e+00 5.000000e+00
      vertex 3.000000e+01 -1.000000e+01 5.000000e+00
    endloop
  endfacet
  facet normal 0.000000e+00 0.000000e+00 1.000000e+00
    outer loop
      vertex 5.000000e+00 -8.000000e+00 1.900000e+01
      vertex -5.000000e+00 8.000000e+00 1.900000e+01
      vertex -5.000000e+00 -8.000000e+00 1.900000e+01
    endloop
  endfacet
  facet normal 0.000000e+00 0.000000e+00 1.000000e+00
    outer loop
      vertex -5.000000e+00 8.000000e+00 1.900000e+01
      vertex 5.000000e+00 -8.000000e+00 1.900000e+01
      vertex 5.000000e+00 8.000000e+00 1.900000e+01
    endloop
  endfacet
  facet normal 0.000000e+00 -1.000000e+00 0.000000e+00
    outer loop
      vertex 5.000000e+00 -8.000000e+00 1.900000e+01
      vertex -5.000000e+00 -8.000000e+00 5.000000e+00
      vertex 5.000000e+00 -8.000000e+00 5.000000e+00
    endloop
  endfacet
  facet normal 0.000000e+00 -1.000000e+00 0.000000e+00
    outer loop
      vertex -5.000000e+00 -8.000000e+00 5.000000e+00
      vertex 5.000000e+00 -8.000000e+00 1.900000e+01
      vertex -5.000000e+00 -8.000000e+00 1.900000e+01
    endloop
  endfacet
  facet normal 1.000000e+00 -1.409983e-15 0.000000e+00
    outer loop
      vertex 5.000000e+00 8.000000e+00 5.000000e+00
      vertex 5.000000e+00 -8.000000e+00 1.900000e+01
      vertex 5.000000e+00 -8.000000e+00 5.000000e+00
    endloop
  endfacet
  facet normal 1.000000e+00 -1.409983e-15 0.000000e+00
    outer loop
      vertex 5.000000e+00 -8.000000e+00 1.900000e+01
      vertex 5.000000e+00 8.000000e+00 5.000000e+00
      vertex 5.000000e+00 8.000000e+00 1.900000e+01
    endloop
  endfacet
  facet normal 0.000000e+00 1.000000e+00 0.000000e+00
    outer loop
      vertex -5.000000e+00 8.000000e+00 1.900000e+01
      vertex 5.000000e+00 8.000000e+00 5.000000e+00
      vertex -5.000000e+00 8.000000e+00 5.000000e+00
    endloop
  endfacet
  facet normal 0.000000e+00 1.000000e+00 0.000000e+00
    outer loop
      vertex 5.000000e+00 8.000000e+00 5.000000e+00
      vertex -5.000000e+00 8.000000e+00 1.900000e+01
      vertex 5.000000e+00 8.000000e+00 1.900000e+01
    endloop
  endfacet
  facet normal -1.000000e+00 -0.000000e+00 -0.000000e+00
    outer loop
      vertex -5.000000e+00 8.000000e+00 1.900000e+01
      vertex -5.000000e+00 -8.000000e+00 5.000000e+00
      vertex -5.000000e+00 -8.000000e+00 1.900000e+01
    endloop
  endfacet
  facet normal -1.000000e+00 -0.000000e+00 -0.000000e+00
    outer loop
      vertex -5.000000e+00 -8.000000e+00 5.000000e+00
      vertex -5.000000e+00 8.000000e+00 1.900000e+01
      vertex -5.000000e+00 8.000000e+00 5.000000e+00
    endloop
  endfacet
endsolid Default
